<?xml version="1.0" encoding="UTF-8" standalone="no"?>
<!DOCTYPE svg PUBLIC "-//W3C//DTD SVG 1.1//EN"
 "http://www.w3.org/Graphics/SVG/1.1/DTD/svg11.dtd">
<!-- Generated by graphviz version 2.38.0 (20140413.2041)
 -->
<!-- Title: models_diagram Pages: 1 -->
<svg width="269pt" height="636pt"
 viewBox="0.00 0.00 268.79 636.00" xmlns="http://www.w3.org/2000/svg" xmlns:xlink="http://www.w3.org/1999/xlink">
<g id="graph0" class="graph" transform="scale(1 1) rotate(0) translate(4 632)">
<title>models_diagram</title>
<polygon fill="white" stroke="none" points="-4,4 -4,-632 264.787,-632 264.787,4 -4,4"/>
<!-- Event -->
<g id="node1" class="node"><title>Event</title>
<path fill="none" stroke="black" d="M71.0034,-415.5C71.0034,-415.5 180.014,-415.5 180.014,-415.5 186.014,-415.5 192.014,-421.5 192.014,-427.5 192.014,-427.5 192.014,-615.5 192.014,-615.5 192.014,-621.5 186.014,-627.5 180.014,-627.5 180.014,-627.5 71.0034,-627.5 71.0034,-627.5 65.0034,-627.5 59.0034,-621.5 59.0034,-615.5 59.0034,-615.5 59.0034,-427.5 59.0034,-427.5 59.0034,-421.5 65.0034,-415.5 71.0034,-415.5"/>
<text text-anchor="middle" x="125.509" y="-612.3" font-family="Times,serif" font-size="14.00">Event</text>
<polyline fill="none" stroke="black" points="59.0034,-605.5 192.014,-605.5 "/>
<text text-anchor="start" x="67.0034" y="-590.3" font-family="Times,serif" font-size="14.00">id :integer</text>
<text text-anchor="start" x="67.0034" y="-576.3" font-family="Times,serif" font-size="14.00">event_name :string</text>
<text text-anchor="start" x="67.0034" y="-562.3" font-family="Times,serif" font-size="14.00">description :string</text>
<text text-anchor="start" x="67.0034" y="-548.3" font-family="Times,serif" font-size="14.00">date :string</text>
<text text-anchor="start" x="67.0034" y="-534.3" font-family="Times,serif" font-size="14.00">time :string</text>
<text text-anchor="start" x="67.0034" y="-520.3" font-family="Times,serif" font-size="14.00">location :string</text>
<text text-anchor="start" x="67.0034" y="-506.3" font-family="Times,serif" font-size="14.00">address :string</text>
<text text-anchor="start" x="67.0034" y="-492.3" font-family="Times,serif" font-size="14.00">difficulty :string</text>
<text text-anchor="start" x="67.0034" y="-478.3" font-family="Times,serif" font-size="14.00">user_id :integer</text>
<text text-anchor="start" x="67.0034" y="-464.3" font-family="Times,serif" font-size="14.00">created_at :datetime</text>
<text text-anchor="start" x="67.0034" y="-450.3" font-family="Times,serif" font-size="14.00">updated_at :datetime</text>
<text text-anchor="start" x="67.0034" y="-436.3" font-family="Times,serif" font-size="14.00">longitude :float</text>
<text text-anchor="start" x="67.0034" y="-422.3" font-family="Times,serif" font-size="14.00">latitude :float</text>
</g>
<!-- EventUser -->
<g id="node2" class="node"><title>EventUser</title>
<path fill="none" stroke="black" d="M12,-0.5C12,-0.5 121.018,-0.5 121.018,-0.5 127.018,-0.5 133.018,-6.5 133.018,-12.5 133.018,-12.5 133.018,-102.5 133.018,-102.5 133.018,-108.5 127.018,-114.5 121.018,-114.5 121.018,-114.5 12,-114.5 12,-114.5 6,-114.5 0,-108.5 0,-102.5 0,-102.5 0,-12.5 0,-12.5 0,-6.5 6,-0.5 12,-0.5"/>
<text text-anchor="middle" x="66.5088" y="-99.3" font-family="Times,serif" font-size="14.00">EventUser</text>
<polyline fill="none" stroke="black" points="0,-92.5 133.018,-92.5 "/>
<text text-anchor="start" x="8" y="-77.3" font-family="Times,serif" font-size="14.00">id :integer</text>
<text text-anchor="start" x="8" y="-63.3" font-family="Times,serif" font-size="14.00">user_id :integer</text>
<text text-anchor="start" x="8" y="-49.3" font-family="Times,serif" font-size="14.00">event_id :integer</text>
<text text-anchor="start" x="8" y="-35.3" font-family="Times,serif" font-size="14.00">created_at :datetime</text>
<text text-anchor="start" x="8" y="-21.3" font-family="Times,serif" font-size="14.00">updated_at :datetime</text>
<text text-anchor="start" x="8" y="-7.3" font-family="Times,serif" font-size="14.00">join_counter :integer</text>
</g>
<!-- Event&#45;&gt;EventUser -->
<g id="edge1" class="edge"><title>Event&#45;&gt;EventUser</title>
<path fill="none" stroke="#85d73b" d="M61.5036,-407.737C55.7821,-393.698 50.8845,-379.259 47.5088,-365 28.3116,-283.912 39.6383,-187.588 51.3726,-124.859"/>
<ellipse fill="none" stroke="#85d73b" cx="63.2128" cy="-411.804" rx="4.00001" ry="4.00001"/>
<polygon fill="#85d73b" stroke="#85d73b" points="51.4374,-124.522 57.7495,-115.555 52.3842,-119.613 53.3309,-114.703 53.3309,-114.703 53.3309,-114.703 52.3842,-119.613 48.9123,-113.851 51.4374,-124.522 51.4374,-124.522"/>
</g>
<!-- User -->
<g id="node3" class="node"><title>User</title>
<path fill="none" stroke="black" d="M68.231,-152.5C68.231,-152.5 248.787,-152.5 248.787,-152.5 254.787,-152.5 260.787,-158.5 260.787,-164.5 260.787,-164.5 260.787,-352.5 260.787,-352.5 260.787,-358.5 254.787,-364.5 248.787,-364.5 248.787,-364.5 68.231,-364.5 68.231,-364.5 62.231,-364.5 56.231,-358.5 56.231,-352.5 56.231,-352.5 56.231,-164.5 56.231,-164.5 56.231,-158.5 62.231,-152.5 68.231,-152.5"/>
<text text-anchor="middle" x="158.509" y="-349.3" font-family="Times,serif" font-size="14.00">User</text>
<polyline fill="none" stroke="black" points="56.231,-342.5 260.787,-342.5 "/>
<text text-anchor="start" x="64.231" y="-327.3" font-family="Times,serif" font-size="14.00">id :integer</text>
<text text-anchor="start" x="64.231" y="-313.3" font-family="Times,serif" font-size="14.00">email :string</text>
<text text-anchor="start" x="64.231" y="-299.3" font-family="Times,serif" font-size="14.00">encrypted_password :string</text>
<text text-anchor="start" x="64.231" y="-285.3" font-family="Times,serif" font-size="14.00">reset_password_token :string</text>
<text text-anchor="start" x="64.231" y="-271.3" font-family="Times,serif" font-size="14.00">reset_password_sent_at :datetime</text>
<text text-anchor="start" x="64.231" y="-257.3" font-family="Times,serif" font-size="14.00">remember_created_at :datetime</text>
<text text-anchor="start" x="64.231" y="-243.3" font-family="Times,serif" font-size="14.00">sign_in_count :integer</text>
<text text-anchor="start" x="64.231" y="-229.3" font-family="Times,serif" font-size="14.00">current_sign_in_at :datetime</text>
<text text-anchor="start" x="64.231" y="-215.3" font-family="Times,serif" font-size="14.00">last_sign_in_at :datetime</text>
<text text-anchor="start" x="64.231" y="-201.3" font-family="Times,serif" font-size="14.00">current_sign_in_ip :string</text>
<text text-anchor="start" x="64.231" y="-187.3" font-family="Times,serif" font-size="14.00">last_sign_in_ip :string</text>
<text text-anchor="start" x="64.231" y="-173.3" font-family="Times,serif" font-size="14.00">created_at :datetime</text>
<text text-anchor="start" x="64.231" y="-159.3" font-family="Times,serif" font-size="14.00">updated_at :datetime</text>
</g>
<!-- Event&#45;&gt;User -->
<g id="edge2" class="edge"><title>Event&#45;&gt;User</title>
<path fill="none" stroke="#8d6545" d="M136.793,-405.358C137.671,-397.787 138.579,-390.282 139.509,-383 139.858,-380.27 140.218,-377.507 140.589,-374.721"/>
<polygon fill="#8d6545" stroke="#8d6545" points="136.789,-405.4 131.187,-414.827 136.223,-410.368 135.658,-415.336 135.658,-415.336 135.658,-415.336 136.223,-410.368 140.129,-415.844 136.789,-405.4 136.789,-405.4"/>
<polygon fill="#8d6545" stroke="#8d6545" points="140.625,-374.462 146.431,-365.16 141.299,-369.508 141.973,-364.553 141.973,-364.553 141.973,-364.553 141.299,-369.508 137.514,-363.947 140.625,-374.462 140.625,-374.462"/>
</g>
<!-- User&#45;&gt;Event -->
<g id="edge4" class="edge"><title>User&#45;&gt;Event</title>
<path fill="none" stroke="#1e383c" d="M143.932,-374.792C142.654,-384.894 141.361,-395.12 140.084,-405.222"/>
<polygon fill="#1e383c" stroke="#1e383c" points="143.948,-374.661 149.667,-365.305 144.575,-369.701 145.203,-364.74 145.203,-364.74 145.203,-364.74 144.575,-369.701 140.738,-364.176 143.948,-374.661 143.948,-374.661"/>
<polygon fill="#1e383c" stroke="#1e383c" points="140.043,-405.548 134.324,-414.905 139.416,-410.509 138.789,-415.47 138.789,-415.47 138.789,-415.47 139.416,-410.509 143.253,-416.034 140.043,-405.548 140.043,-405.548"/>
<text text-anchor="middle" x="156.288" y="-385.8" font-family="Times,serif" font-size="14.00">rsvps</text>
</g>
<!-- User&#45;&gt;EventUser -->
<g id="edge3" class="edge"><title>User&#45;&gt;EventUser</title>
<path fill="none" stroke="#eb97b3" d="M106.557,-145.126C103.199,-137.863 99.8851,-130.694 96.6869,-123.777"/>
<ellipse fill="none" stroke="#eb97b3" cx="108.271" cy="-148.833" rx="4.00002" ry="4.00002"/>
<polygon fill="#eb97b3" stroke="#eb97b3" points="96.6011,-123.591 96.4893,-112.626 94.5029,-119.052 92.4047,-114.514 92.4047,-114.514 92.4047,-114.514 94.5029,-119.052 88.3201,-116.402 96.6011,-123.591 96.6011,-123.591"/>
</g>
</g>
</svg>
